<svg xmlns="http://www.w3.org/2000/svg" xmlns:xlink="http://www.w3.org/1999/xlink" width="60" height="60" version="1.1" viewBox="0 0 60 60"><g fill="none" fill-rule="evenodd" stroke="none" stroke-width="1"><path fill="#000" d="M6.41057377,36.4144543 C6.03188525,36.4087166 5.66877049,36.5636346 5.41057377,36.8406838 C4.86303279,37.4144543 4.86303279,38.3160936 5.41057377,38.8898641 C5.66713115,39.170192 6.0302459,39.3283887 6.41057377,39.3242903 C7.2097541,39.3193723 7.85729508,38.672651 7.86139344,37.8734707 C7.8654918,37.4882248 7.71139344,37.117733 7.43516393,36.8488805 C7.16959016,36.5669133 6.79745902,36.4095362 6.41057377,36.4144543"/><path fill="#000" d="M23.7138525,33.5783887 C23.6941803,34.4849461 23.7384426,35.3915034 23.845,36.2915034 L23.7958197,36.2915034 C23.6646721,36.0456018 23.4187705,35.6357657 23.049918,35.0619952 L13.8204098,20.5947821 L11.0171311,20.5947821 L11.0171311,39.0374051 L13.1810656,39.0374051 L13.1810656,25.717733 C13.2015574,24.8718313 13.1663115,24.0259297 13.0745082,23.1849461 L13.1564754,23.1849461 C13.3097541,23.5882248 13.5015574,23.97511 13.7302459,24.3406838 L23.2466393,39.0382248 L25.8695902,39.0382248 L25.8695902,20.5956018 L23.7220492,20.5956018 L23.7220492,33.5783887 L23.7138525,33.5783887 Z"/><polygon fill="#000" points="32.107 30.628 38.771 30.628 38.771 28.677 32.107 28.677 32.107 22.546 39.296 22.546 39.296 20.587 29.952 20.587 29.952 39.029 39.722 39.029 39.722 37.07 32.107 37.07"/><polygon fill="#000" points="41.747 22.546 47.075 22.546 47.075 39.029 49.23 39.029 49.23 22.546 54.542 22.546 54.542 20.587 41.747 20.587"/></g></svg>